<svg width="32" height="32" viewBox="0 0 32 32" fill="none" xmlns="http://www.w3.org/2000/svg">
<rect x="0.5" y="0.5" width="31" height="31" stroke="#666666"/>
<g clip-path="url(#clip0_1_690)">
<path d="M21.0905 11.3485C20.1269 10.905 19.1096 10.5903 18.0646 10.4126C17.9216 10.6696 17.7922 10.934 17.677 11.2047C16.5639 11.036 15.432 11.036 14.3189 11.2047C14.2037 10.934 14.0743 10.6696 13.9313 10.4126C12.8857 10.5918 11.8678 10.9072 10.9032 11.3508C8.98825 14.1989 8.46913 16.9764 8.72869 19.7143C9.85013 20.5473 11.1053 21.1808 12.4398 21.5872C12.7402 21.181 13.0061 20.75 13.2346 20.2988C12.8006 20.1359 12.3818 19.9349 11.9829 19.6981C12.0879 19.6216 12.1906 19.5427 12.2898 19.4662C13.4504 20.0149 14.7171 20.2993 15.9997 20.2993C17.2822 20.2993 18.549 20.0149 19.7096 19.4662C19.81 19.5485 19.9126 19.6274 20.0165 19.6981C19.6169 19.9353 19.1973 20.1366 18.7626 20.3C18.9907 20.7509 19.2566 21.1815 19.5574 21.5872C20.893 21.1824 22.149 20.5492 23.2707 19.7155C23.5753 16.5403 22.7505 13.7884 21.0905 11.3485ZM13.5634 18.0305C12.8401 18.0305 12.2425 17.3706 12.2425 16.5589C12.2425 15.7471 12.8193 15.0814 13.561 15.0814C14.3028 15.0814 14.8957 15.7471 14.8831 16.5589C14.8703 17.3706 14.3005 18.0305 13.5634 18.0305ZM18.4361 18.0305C17.7116 18.0305 17.1164 17.3706 17.1164 16.5589C17.1164 15.7471 17.6931 15.0814 18.4361 15.0814C19.179 15.0814 19.7674 15.7471 19.7546 16.5589C19.7419 17.3706 19.1732 18.0305 18.4361 18.0305Z" fill="#666666"/>
</g>
<defs>
<clipPath id="clip0_1_690">
<rect width="16" height="16" fill="white" transform="translate(8 8)"/>
</clipPath>
</defs>
</svg>
