<svg width="32" height="32" viewBox="0 0 32 32" fill="none" xmlns="http://www.w3.org/2000/svg">
<rect x="0.5" y="0.5" width="31" height="31" stroke="#666666"/>
<g clip-path="url(#clip0_1_697)">
<path d="M9.05398 15.1197C13.1708 13.3322 15.9153 12.1538 17.2874 11.5844C21.2102 9.95866 22.0242 9.6763 22.5558 9.66684C22.6728 9.66486 22.9331 9.69367 23.103 9.83067C23.2442 9.94612 23.2839 10.1023 23.3038 10.2118C23.3214 10.3213 23.3458 10.5709 23.3259 10.7657C23.1142 12.9912 22.1942 18.3916 21.7264 20.8843C21.5301 21.939 21.1395 22.2926 20.7622 22.3271C19.9415 22.4023 19.3194 21.787 18.5251 21.2682C17.283 20.4562 16.5815 19.9507 15.3747 19.1585C13.9804 18.2427 14.8849 17.7394 15.6792 16.917C15.8865 16.7017 19.5002 13.4262 19.5686 13.1291C19.5775 13.0919 19.5864 12.9534 19.5026 12.8803C19.421 12.8071 19.2994 12.8322 19.2113 12.852C19.0854 12.8801 17.1022 14.1881 13.2545 16.7758C12.6919 17.1615 12.1823 17.3495 11.7234 17.3396C11.2204 17.3288 10.2497 17.0555 9.5283 16.8219C8.64582 16.5354 7.942 16.3839 8.00378 15.8972C8.03466 15.6439 8.38551 15.3846 9.05398 15.1197Z" fill="#666666"/>
</g>
<defs>
<clipPath id="clip0_1_697">
<rect width="16" height="16" fill="white" transform="translate(8 8)"/>
</clipPath>
</defs>
</svg>
