<svg width="300" height="362" viewBox="0 0 300 362" fill="none" xmlns="http://www.w3.org/2000/svg">
<path opacity="0.3" fill-rule="evenodd" clip-rule="evenodd" d="M232.251 342.829L275.159 319.522C276.965 318.551 279.468 318.233 282.233 318.8C287.732 319.928 292.195 324.129 292.195 328.176C292.195 330.159 291.124 331.739 289.385 332.703L246.4 356.051L246.374 356.065L246.332 356.088L246.293 356.109C244.489 357.068 241.997 357.379 239.247 356.815C233.749 355.688 229.285 351.487 229.285 347.439C229.285 345.398 230.421 343.784 232.251 342.829ZM248.814 353.494C248.46 354.318 247.879 355.024 247.12 355.588C247.879 355.024 248.46 354.318 248.814 353.494ZM249.209 351.43C249.209 351.462 249.209 351.493 249.209 351.525C249.209 351.541 249.209 351.556 249.209 351.572V351.525C249.209 351.493 249.209 351.462 249.209 351.43ZM249.199 351.193C249.202 351.234 249.204 351.276 249.205 351.318C249.203 351.26 249.2 351.202 249.196 351.145L249.199 351.193ZM248.674 349.04C248.665 349.018 248.655 348.995 248.645 348.973L248.666 349.02L248.674 349.04ZM248.329 348.328C248.349 348.365 248.369 348.402 248.388 348.439C248.369 348.402 248.349 348.365 248.329 348.328ZM248.035 347.829C248.049 347.851 248.063 347.873 248.077 347.895C248.054 347.858 248.03 347.821 248.006 347.784L248.035 347.829ZM247.229 346.732C247.389 346.923 247.541 347.117 247.684 347.313C247.541 347.117 247.389 346.923 247.229 346.732ZM246.812 346.264C246.775 346.225 246.738 346.186 246.7 346.146L246.779 346.229L246.812 346.264ZM246.083 345.551C246.037 345.51 245.99 345.469 245.944 345.428L246.032 345.506L246.083 345.551ZM243.278 343.602C243.341 343.635 243.403 343.669 243.465 343.703C243.403 343.669 243.341 343.635 243.278 343.602ZM247.918 347.65C247.928 347.665 247.938 347.679 247.948 347.694L247.918 347.65C247.908 347.635 247.899 347.62 247.889 347.605L247.918 347.65Z" fill="#2349E2"/>
<path opacity="0.3" fill-rule="evenodd" clip-rule="evenodd" d="M97.8549 227.102L0 283.709L132.967 360.629L165.96 360.662L230.822 304.021L97.8549 227.102Z" fill="#2349E2"/>
<path fill-rule="evenodd" clip-rule="evenodd" d="M158.603 162.927L60.7481 219.534L193.715 296.453L291.57 239.846L158.603 162.927Z" fill="#A5B4F3"/>
<path fill-rule="evenodd" clip-rule="evenodd" d="M158.603 162.927L60.7481 219.534L193.715 296.453L291.57 239.846L158.603 162.927Z" stroke="#2349E2" stroke-width="1.3232" stroke-linecap="round" stroke-linejoin="round"/>
<path fill-rule="evenodd" clip-rule="evenodd" d="M60.772 235.58L46.8705 243.622L179.838 320.542L193.739 312.499L60.772 235.58Z" fill="#A5B4F3"/>
<path fill-rule="evenodd" clip-rule="evenodd" d="M60.772 235.58L46.8705 243.622L179.838 320.542L193.739 312.499L60.772 235.58Z" stroke="#2349E2" stroke-width="1.3232" stroke-linecap="round" stroke-linejoin="round"/>
<path fill-rule="evenodd" clip-rule="evenodd" d="M46.895 259.669L32.9929 267.71L165.96 344.63L179.862 336.588L46.895 259.669Z" fill="#A5B4F3"/>
<path fill-rule="evenodd" clip-rule="evenodd" d="M46.895 259.669L32.9929 267.71L165.96 344.63L179.862 336.588L46.895 259.669Z" stroke="#2349E2" stroke-width="1.3232" stroke-linecap="round" stroke-linejoin="round"/>
<path fill-rule="evenodd" clip-rule="evenodd" d="M60.7481 219.534V235.567L193.715 312.486V296.453L60.7481 219.534Z" fill="#2349E2"/>
<path fill-rule="evenodd" clip-rule="evenodd" d="M60.7481 219.534V235.567L193.715 312.486V296.453L60.7481 219.534Z" fill="#2349E2" stroke="#2349E2" stroke-width="1.3232" stroke-linecap="round" stroke-linejoin="round"/>
<path fill-rule="evenodd" clip-rule="evenodd" d="M46.8705 243.622V259.655L179.838 336.574V320.542L46.8705 243.622Z" fill="#2349E2"/>
<path fill-rule="evenodd" clip-rule="evenodd" d="M46.8705 243.622V259.655L179.838 336.574V320.542L46.8705 243.622Z" fill="#2349E2" stroke="#2349E2" stroke-width="1.3232" stroke-linecap="round" stroke-linejoin="round"/>
<path fill-rule="evenodd" clip-rule="evenodd" d="M32.9929 267.71V283.743L165.96 360.662V344.63L32.9929 267.71Z" fill="#2349E2"/>
<path fill-rule="evenodd" clip-rule="evenodd" d="M32.9929 267.71V283.743L165.96 360.662V344.63L32.9929 267.71Z" fill="#2349E2" stroke="#2349E2" stroke-width="1.3232" stroke-linecap="round" stroke-linejoin="round"/>
<path fill-rule="evenodd" clip-rule="evenodd" d="M117.913 21.2908C128.372 15.9477 142.459 17.1161 157.955 26.0801C157.955 26.0808 157.956 26.0808 157.956 26.0808C190.221 44.7452 216.376 90.1364 216.376 127.465V273.566L246.496 256.142V110.041C246.496 72.7131 220.341 27.3213 188.076 8.65683H188.075C172.636 -0.274793 158.596 -1.46766 148.151 3.80729C136.768 9.55529 117.913 21.2908 117.913 21.2908Z" fill="#A5B4F3"/>
<path fill-rule="evenodd" clip-rule="evenodd" d="M117.913 21.2908C128.372 15.9477 142.459 17.1161 157.955 26.0801C190.221 44.7452 216.376 90.1364 216.376 127.465V273.566L246.496 256.142V110.041C246.496 72.7131 220.341 27.3213 188.076 8.65683C172.636 -0.274793 158.596 -1.46766 148.151 3.80729C136.768 9.55529 117.913 21.2908 117.913 21.2908Z" stroke="#2349E2" stroke-width="1.3232" stroke-linecap="round" stroke-linejoin="round"/>
<path fill-rule="evenodd" clip-rule="evenodd" d="M206.45 217.014L139.581 178.332V50.4048C139.581 44.025 140.501 38.4259 142.198 33.6888C123.153 30.2359 109.461 43.2225 109.461 67.8288C109.461 119.798 109.461 195.755 109.461 195.755L206.45 251.862V217.014Z" fill="#A5B4F3"/>
<path fill-rule="evenodd" clip-rule="evenodd" d="M206.45 217.014L139.581 178.332V50.4048C139.581 44.025 140.501 38.4259 142.198 33.6888C123.153 30.2359 109.461 43.2225 109.461 67.8288C109.461 119.798 109.461 195.755 109.461 195.755L206.45 251.862V217.014Z" stroke="#2349E2" stroke-width="1.3232" stroke-linecap="round" stroke-linejoin="round"/>
<path fill-rule="evenodd" clip-rule="evenodd" d="M139.581 178.332L109.461 195.755L206.45 251.862V217.014L139.581 178.332Z" fill="#A5B4F3"/>
<path fill-rule="evenodd" clip-rule="evenodd" d="M139.581 178.332L109.461 195.755L206.45 251.862V217.014L139.581 178.332Z" stroke="#2349E2" stroke-width="1.3232" stroke-linecap="round" stroke-linejoin="round"/>
<path fill-rule="evenodd" clip-rule="evenodd" d="M206.45 161.517C197.794 174.56 182.995 183.163 166.206 183.163C139.553 183.163 117.913 161.481 117.913 134.775C117.913 108.07 139.553 86.3877 166.206 86.3877C181.462 86.3877 195.075 93.4913 203.93 104.577C205.564 111.143 206.45 117.676 206.45 123.934V161.517Z" fill="#2349E2"/>
<path fill-rule="evenodd" clip-rule="evenodd" d="M206.45 161.517C197.794 174.56 182.995 183.163 166.206 183.163C139.553 183.163 117.913 161.481 117.913 134.775C117.913 108.07 139.553 86.3877 166.206 86.3877C181.462 86.3877 195.075 93.4913 203.93 104.577C205.564 111.143 206.45 117.676 206.45 123.934V161.517Z" stroke="#2349E2" stroke-width="1.3232" stroke-linecap="round" stroke-linejoin="round"/>
<path fill-rule="evenodd" clip-rule="evenodd" d="M193.716 296.453L193.739 312.5L179.838 320.542V336.574L165.936 344.616L165.96 360.662L291.576 287.998V239.849L193.716 296.453Z" fill="#A5B4F3"/>
<path fill-rule="evenodd" clip-rule="evenodd" d="M193.716 296.453L193.739 312.5L179.838 320.542V336.574L165.936 344.616L165.96 360.662L291.576 287.998V239.849L193.716 296.453Z" stroke="#2349E2" stroke-width="1.3232" stroke-linecap="round" stroke-linejoin="round"/>
<path fill-rule="evenodd" clip-rule="evenodd" d="M216.376 127.465C216.376 90.1366 190.221 44.7454 157.956 26.081C157.956 26.081 157.955 26.081 157.955 26.0803C125.691 7.41651 99.5353 22.5467 99.5353 59.8756C99.5353 122.482 99.5353 205.975 99.5353 205.975L216.376 273.566V127.465ZM206.45 123.935C206.45 92.9484 184.739 55.2695 157.956 39.7761C157.956 39.7761 157.955 39.7761 157.955 39.7755C131.173 24.2827 109.461 36.8419 109.461 67.8287C109.461 119.798 109.461 195.755 109.461 195.755L206.45 251.862C206.45 251.862 206.45 175.905 206.45 123.935Z" fill="#2349E2"/>
<path fill-rule="evenodd" clip-rule="evenodd" d="M216.376 127.465C216.376 90.1366 190.221 44.7454 157.956 26.081C125.691 7.41651 99.5353 22.5467 99.5353 59.8756C99.5353 122.482 99.5353 205.975 99.5353 205.975L216.376 273.566V127.465ZM206.45 123.935C206.45 92.9484 184.739 55.2695 157.956 39.7761C131.173 24.2827 109.461 36.8419 109.461 67.8287C109.461 119.798 109.461 195.755 109.461 195.755L206.45 251.862C206.45 251.862 206.45 175.905 206.45 123.935Z" fill="#2349E2" stroke="#2349E2" stroke-width="1.3232" stroke-linecap="round" stroke-linejoin="round"/>
<path fill-rule="evenodd" clip-rule="evenodd" d="M238.508 328.211L281.417 303.482C283.222 302.457 285.725 302.622 288.491 304.222C293.988 307.403 298.452 315.056 298.452 321.302C298.452 324.362 297.382 326.52 295.642 327.552L252.55 352.386C254.352 351.38 255.467 349.197 255.467 346.075C255.467 339.829 251.002 332.175 245.505 328.995C242.779 327.418 240.308 327.234 238.508 328.211Z" fill="#A5B4F3"/>
<path fill-rule="evenodd" clip-rule="evenodd" d="M238.508 328.211L281.417 303.482C283.222 302.457 285.725 302.622 288.491 304.222C293.988 307.403 298.452 315.056 298.452 321.302C298.452 324.362 297.382 326.52 295.642 327.552L252.55 352.386C254.352 351.38 255.467 349.197 255.467 346.075C255.467 339.829 251.002 332.175 245.505 328.995C242.779 327.418 240.308 327.234 238.508 328.211Z" stroke="#2349E2" stroke-width="1.3232" stroke-linecap="round" stroke-linejoin="round"/>
<path fill-rule="evenodd" clip-rule="evenodd" d="M245.505 328.995C251.003 332.175 255.467 339.829 255.467 346.075C255.467 352.321 251.003 354.811 245.505 351.63C240.007 348.449 235.543 340.796 235.543 334.549C235.543 328.303 240.007 325.814 245.505 328.995Z" fill="#2349E2"/>
<path fill-rule="evenodd" clip-rule="evenodd" d="M245.505 328.995C251.003 332.175 255.467 339.829 255.467 346.075C255.467 352.321 251.003 354.811 245.505 351.63C240.007 348.449 235.543 340.796 235.543 334.549C235.543 328.303 240.007 325.814 245.505 328.995Z" stroke="#2349E2" stroke-width="1.3232" stroke-linecap="round" stroke-linejoin="round"/>
</svg>
