<svg width="28" height="28" viewBox="0 0 28 28" fill="none" xmlns="http://www.w3.org/2000/svg">
<path d="M27.5 0.5V27.5H0.5V0.5H27.5Z" fill="#01010E"/>
<path d="M27.5 0.5V27.5H0.5V0.5H27.5Z" stroke="#2349E2"/>
<g clip-path="url(#clip0_52_142)">
<path d="M11.1875 15.875C11.7053 15.875 12.125 15.4553 12.125 14.9375C12.125 14.4197 11.7053 14 11.1875 14C10.6697 14 10.25 14.4197 10.25 14.9375C10.25 15.4553 10.6697 15.875 11.1875 15.875Z" fill="#A5B4F3"/>
<path d="M16.8125 15.875C17.3303 15.875 17.75 15.4553 17.75 14.9375C17.75 14.4197 17.3303 14 16.8125 14C16.2947 14 15.875 14.4197 15.875 14.9375C15.875 15.4553 16.2947 15.875 16.8125 15.875Z" fill="#A5B4F3"/>
<path d="M15.9875 9.75705L16.3781 8.22346C16.4171 8.06916 16.5129 7.93522 16.6462 7.84835C16.7796 7.76148 16.9408 7.72804 17.0977 7.75471L19.9133 8.21877C20.0349 8.23851 20.1481 8.29341 20.2389 8.37671C20.3297 8.46 20.3941 8.56805 20.4242 8.68752L22.7312 17.7789C22.7665 17.9218 22.7502 18.0726 22.6851 18.2047C22.6201 18.3367 22.5106 18.4416 22.3758 18.5008L17.1414 20.8211C17.062 20.8572 16.976 20.8765 16.8888 20.878C16.8016 20.8794 16.715 20.8629 16.6344 20.8295C16.5538 20.7961 16.481 20.7465 16.4203 20.6838C16.3597 20.6211 16.3127 20.5465 16.282 20.4649L15.4844 18.3016" stroke="#A5B4F3" stroke-width="1.25" stroke-linecap="round" stroke-linejoin="round"/>
<path d="M12.0129 9.75705L11.6223 8.22346C11.5833 8.06916 11.4875 7.93522 11.3542 7.84835C11.2208 7.76148 11.0597 7.72804 10.9028 7.75471L8.08713 8.21877C7.96551 8.23851 7.85232 8.29341 7.76153 8.37671C7.67074 8.46 7.60631 8.56805 7.57619 8.68752L5.26916 17.7774C5.23391 17.9203 5.25024 18.0711 5.31527 18.2031C5.3803 18.3352 5.48985 18.44 5.62463 18.4992L10.859 20.8195C10.9384 20.8556 11.0244 20.875 11.1116 20.8764C11.1988 20.8778 11.2854 20.8614 11.366 20.828C11.4466 20.7945 11.5194 20.7449 11.5801 20.6822C11.6407 20.6195 11.6878 20.545 11.7184 20.4633L12.516 18.3016" stroke="#A5B4F3" stroke-width="1.25" stroke-linecap="round" stroke-linejoin="round"/>
<path d="M10.25 10.118C11.4719 9.78452 12.7334 9.61868 14 9.62499C15.2666 9.61868 16.5281 9.78452 17.75 10.118" stroke="#A5B4F3" stroke-width="1.25" stroke-linecap="round" stroke-linejoin="round"/>
<path d="M17.75 17.882C16.5281 18.2155 15.2666 18.3813 14 18.375C12.7334 18.3813 11.4719 18.2155 10.25 17.882" stroke="#A5B4F3" stroke-width="1.25" stroke-linecap="round" stroke-linejoin="round"/>
</g>
<defs>
<clipPath id="clip0_52_142">
<rect width="20" height="20" fill="white" transform="translate(4 4)"/>
</clipPath>
</defs>
</svg>
