<svg width="28" height="28" viewBox="0 0 28 28" fill="none" xmlns="http://www.w3.org/2000/svg">
<path d="M27.5 0.5V27.5H0.5V0.5H27.5Z" fill="#01010E"/>
<path d="M27.5 0.5V27.5H0.5V0.5H27.5Z" stroke="#2349E2"/>
<g clip-path="url(#clip0_52_157)">
<path d="M13.3617 8.375C12.9943 7.80006 12.488 7.32692 11.8896 6.99922C11.2911 6.67153 10.6198 6.49984 9.9375 6.5C9.634 7.02473 9.45196 7.61081 9.40478 8.21515C9.3576 8.81948 9.44646 9.42671 9.66484 9.99219C9.2373 10.6218 9.00594 11.364 9 12.125V12.75C9 13.7446 9.39509 14.6984 10.0983 15.4017C10.8016 16.1049 11.7554 16.5 12.75 16.5H16.5C17.4946 16.5 18.4484 16.1049 19.1517 15.4017C19.8549 14.6984 20.25 13.7446 20.25 12.75V12.125C20.2441 11.364 20.0127 10.6218 19.5852 9.99219C19.8035 9.42671 19.8924 8.81948 19.8452 8.21515C19.798 7.61081 19.616 7.02473 19.3125 6.5C18.6302 6.49984 17.9589 6.67153 17.3604 6.99922C16.762 7.32692 16.2557 7.80006 15.8883 8.375H13.3617Z" stroke="#A5B4F3" stroke-width="1.25" stroke-linecap="round" stroke-linejoin="round"/>
<path d="M12.125 22.125V19C12.125 18.337 12.3884 17.7011 12.8572 17.2322C13.3261 16.7634 13.962 16.5 14.625 16.5C15.288 16.5 15.9239 16.7634 16.3928 17.2322C16.8616 17.7011 17.125 18.337 17.125 19V22.125" stroke="#A5B4F3" stroke-width="1.25" stroke-linecap="round" stroke-linejoin="round"/>
<path d="M12.125 20.25H9.625C8.96196 20.25 8.32607 19.9866 7.85723 19.5178C7.38839 19.0489 7.125 18.413 7.125 17.75C7.125 17.087 6.86161 16.4511 6.39277 15.9822C5.92393 15.5134 5.28804 15.25 4.625 15.25" stroke="#A5B4F3" stroke-width="1.25" stroke-linecap="round" stroke-linejoin="round"/>
</g>
<defs>
<clipPath id="clip0_52_157">
<rect width="20" height="20" fill="white" transform="translate(4 4)"/>
</clipPath>
</defs>
</svg>
