<svg width="28" height="28" viewBox="0 0 28 28" fill="none" xmlns="http://www.w3.org/2000/svg">
<path d="M27.5 0.5V27.5H0.5V0.5H27.5Z" fill="#01010E"/>
<path d="M27.5 0.5V27.5H0.5V0.5H27.5Z" stroke="#2349E2"/>
<g clip-path="url(#clip0_52_151)">
<path d="M10.2504 14.5367L17.3019 20.7187C17.3832 20.7904 17.4816 20.8397 17.5876 20.8619C17.6937 20.884 17.8037 20.8782 17.9068 20.845C18.0099 20.8119 18.1026 20.7525 18.1759 20.6727C18.2491 20.5929 18.3004 20.4954 18.3246 20.3898L21.5004 6.5953C21.5035 6.58147 21.5027 6.56705 21.4983 6.5536C21.4938 6.54015 21.4858 6.52816 21.475 6.51893C21.4643 6.5097 21.4512 6.50357 21.4372 6.50119C21.4232 6.49882 21.4089 6.50029 21.3957 6.50546L5.56287 12.7016C5.46458 12.7394 5.38121 12.8081 5.32528 12.8973C5.26935 12.9866 5.24388 13.0915 5.25268 13.1965C5.26149 13.3014 5.30409 13.4007 5.37411 13.4794C5.44413 13.558 5.53777 13.6119 5.64099 13.6328L10.2504 14.5367Z" stroke="#A5B4F3" stroke-width="1.25" stroke-linecap="round" stroke-linejoin="round"/>
<path d="M10.25 14.5367L21.4539 6.50705" stroke="#A5B4F3" stroke-width="1.25" stroke-linecap="round" stroke-linejoin="round"/>
<path d="M13.7164 17.5766L11.325 20.0578C11.2386 20.1475 11.1274 20.2093 11.0056 20.2353C10.8838 20.2613 10.7571 20.2504 10.6416 20.2039C10.5261 20.1574 10.4271 20.0774 10.3573 19.9743C10.2876 19.8712 10.2502 19.7495 10.25 19.625V14.5367" stroke="#A5B4F3" stroke-width="1.25" stroke-linecap="round" stroke-linejoin="round"/>
</g>
<defs>
<clipPath id="clip0_52_151">
<rect width="20" height="20" fill="white" transform="translate(4 4)"/>
</clipPath>
</defs>
</svg>
