<svg width="20" height="20" viewBox="0 0 20 20" fill="none" xmlns="http://www.w3.org/2000/svg">
<g clip-path="url(#clip0_1_94)">
<path d="M3.125 4.375V14.375C3.125 14.7065 3.2567 15.0245 3.49112 15.2589C3.72554 15.4933 4.04348 15.625 4.375 15.625H16.875C17.0408 15.625 17.1997 15.5592 17.3169 15.4419C17.4342 15.3247 17.5 15.1658 17.5 15V6.25C17.5 6.08424 17.4342 5.92527 17.3169 5.80806C17.1997 5.69085 17.0408 5.625 16.875 5.625H4.375C4.04348 5.625 3.72554 5.4933 3.49112 5.25888C3.2567 5.02446 3.125 4.70652 3.125 4.375ZM3.125 4.375C3.125 4.04348 3.2567 3.72554 3.49112 3.49112C3.72554 3.2567 4.04348 3.125 4.375 3.125H15" stroke="#E8ECFC" stroke-width="1.25" stroke-linecap="round" stroke-linejoin="round"/>
<path d="M14.0625 11.25C14.5803 11.25 15 10.8303 15 10.3125C15 9.79473 14.5803 9.375 14.0625 9.375C13.5447 9.375 13.125 9.79473 13.125 10.3125C13.125 10.8303 13.5447 11.25 14.0625 11.25Z" fill="#E8ECFC"/>
</g>
<defs>
<clipPath id="clip0_1_94">
<rect width="20" height="20" fill="white"/>
</clipPath>
</defs>
</svg>
