<svg width="130" height="31" viewBox="0 0 130 31" fill="none" xmlns="http://www.w3.org/2000/svg">
<path d="M23.25 3.5H22.875H22.5V5L23.25 4.25V3.5Z" fill="black"/>
<path d="M22.5 8L23.25 7.25V4.25L22.5 5V8Z" fill="black"/>
<path d="M22.5 11L22.875 10.625L23.25 10.25V7.25L22.5 8V11Z" fill="black"/>
<path d="M20.25 10.25L20.625 9.875L21 9.5V6.5L20.25 7.25V10.25Z" fill="black"/>
<path d="M20.25 7.25L21 6.5V3.5L20.25 4.25V7.25Z" fill="black"/>
<path d="M21 3.5H20.625H20.25V4.25L21 3.5Z" fill="black"/>
<path d="M11.25 10.25V13.25L12 12.5V9.5L11.625 9.875L11.25 10.25Z" fill="black"/>
<path d="M11.25 13.25V16.25L12 15.5V12.5L11.25 13.25Z" fill="black"/>
<path d="M11.25 16.25V19.25L12 18.5V15.5L11.25 16.25Z" fill="black"/>
<path d="M11.25 19.25V22.25L11.625 21.875L12 21.5V18.5L11.25 19.25Z" fill="black"/>
<path fill-rule="evenodd" clip-rule="evenodd" d="M1.125 17.375V14.375L0.75 14.75V17.75L1.125 17.375Z" fill="black"/>
<path d="M2.25 19.25V22.25L2.625 21.875V18.875L2.25 19.25Z" fill="black"/>
<path d="M2.25 22.25V25.25L2.625 24.875V21.875L2.25 22.25Z" fill="black"/>
<path d="M2.25 25.25V27.5H2.625V24.875L2.25 25.25Z" fill="black"/>
<path d="M3 27.5V24.5L2.625 24.875V27.5H3Z" fill="black"/>
<path d="M3 24.5V21.5L2.625 21.875V24.875L3 24.5Z" fill="black"/>
<path d="M3 21.5V18.5L2.625 18.875V21.875L3 21.5Z" fill="black"/>
<path d="M4.5 17V20L4.875 19.625V16.625L4.5 17Z" fill="black"/>
<path d="M4.5 20V23L4.875 22.625V19.625L4.5 20Z" fill="black"/>
<path d="M4.5 23V26L4.875 25.625V22.625L4.5 23Z" fill="black"/>
<path d="M4.5 26V27.5H4.875V25.625L4.5 26Z" fill="black"/>
<path d="M7.5 23V26L7.875 25.625V22.625L7.5 23Z" fill="black"/>
<path d="M7.875 19.625L7.5 20V23L7.875 22.625V19.625Z" fill="black"/>
<path d="M7.875 16.625L7.5 17V20L7.875 19.625V16.625Z" fill="black"/>
<path d="M7.875 13.625L7.5 14V17L7.875 16.625V13.625Z" fill="black"/>
<path d="M7.875 10.625L7.5 11V14L7.875 13.625V10.625Z" fill="black"/>
<path fill-rule="evenodd" clip-rule="evenodd" d="M11.625 27.5H11.25V25.25L11.625 24.875V27.5Z" fill="black"/>
<path d="M13.5 11L13.875 10.625V7.625L13.5 8V11Z" fill="black"/>
<path d="M13.5 14L13.875 13.625V10.625L13.5 11V14Z" fill="black"/>
<path d="M13.5 17L13.875 16.625V13.625L13.5 14V17Z" fill="black"/>
<path d="M13.5 20L13.875 19.625V16.625L13.5 17V20Z" fill="black"/>
<path d="M13.5 23L13.875 22.625V19.625L13.5 20V23Z" fill="black"/>
<path d="M18.75 14.75V11.75L18.375 12.125V15.125L18.75 14.75Z" fill="black"/>
<path d="M18.75 11.75V8.75L18.375 9.125V12.125L18.75 11.75Z" fill="black"/>
<path d="M18.75 8.75V5.75L18.375 6.125V9.125L18.75 8.75Z" fill="black"/>
<path d="M18.75 5.75V3.5H18.375V6.125L18.75 5.75Z" fill="black"/>
<path d="M18.75 3.5V5.75L19.125 5.375V3.5H18.75Z" fill="black"/>
<path d="M18.75 8.75L19.125 8.375V5.375L18.75 5.75V8.75Z" fill="black"/>
<path d="M18.75 11.75L19.125 11.375V8.375L18.75 8.75V11.75Z" fill="black"/>
<path d="M18.75 14.75L19.125 14.375V11.375L18.75 11.75V14.75Z" fill="black"/>
<path d="M20.25 10.25V13.25L20.625 12.875V9.875L20.25 10.25Z" fill="black"/>
<path d="M20.25 13.25V16.25L20.625 15.875V12.875L20.25 13.25Z" fill="black"/>
<path d="M20.25 16.25V19.25L20.625 18.875V15.875L20.25 16.25Z" fill="black"/>
<path d="M21 12.5V9.5L20.625 9.875V12.875L21 12.5Z" fill="black"/>
<path d="M21 9.5V12.5L21.375 12.125V9.125L21 9.5Z" fill="black"/>
<path d="M21 6.5V9.5L21.375 9.125V6.125L21 6.5Z" fill="black"/>
<path d="M21 3.5V6.5L21.375 6.125V3.5H21Z" fill="black"/>
<path d="M3 18.5V21.5L3.375 21.125V18.125L3 18.5Z" fill="black"/>
<path d="M3 15.5V18.5L3.375 18.125V15.125L3 15.5Z" fill="black"/>
<path d="M3 12.5V15.5L3.375 15.125V12.125L3 12.5Z" fill="black"/>
<path d="M3 21.5V24.5L3.375 24.125V21.125L3 21.5Z" fill="black"/>
<path d="M3 24.5V27.5L3.375 27.125V24.125L3 24.5Z" fill="black"/>
<path d="M3 27.5H3.375V27.125L3 27.5Z" fill="black"/>
<path d="M5.25 19.25V16.25L4.875 16.625V19.625L5.25 19.25Z" fill="black"/>
<path d="M5.25 16.25V19.25L5.625 18.875V15.875L5.25 16.25Z" fill="black"/>
<path d="M5.25 13.25V16.25L5.625 15.875V12.875L5.25 13.25Z" fill="black"/>
<path d="M5.25 10.25V13.25L5.625 12.875V9.875L5.25 10.25Z" fill="black"/>
<path d="M5.25 19.25V22.25L5.625 21.875V18.875L5.25 19.25Z" fill="black"/>
<path d="M5.25 22.25V19.25L4.875 19.625V22.625L5.25 22.25Z" fill="black"/>
<path d="M5.25 25.25V22.25L4.875 22.625V25.625L5.25 25.25Z" fill="black"/>
<path d="M5.25 22.25V25.25L5.625 24.875V21.875L5.25 22.25Z" fill="black"/>
<path d="M5.25 25.25V27.5H5.625V24.875L5.25 25.25Z" fill="black"/>
<path d="M5.25 27.5V25.25L4.875 25.625V27.5H5.25Z" fill="black"/>
<path d="M6.75 26.75V27.5H7.125V26.375L6.75 26.75Z" fill="black"/>
<path d="M6.75 23.75V26.75L7.125 26.375V23.375L6.75 23.75Z" fill="black"/>
<path d="M6.75 20.75V23.75L7.125 23.375V20.375L6.75 20.75Z" fill="black"/>
<path d="M6.75 17.75V20.75L7.125 20.375V17.375L6.75 17.75Z" fill="black"/>
<path d="M6.75 14.75V17.75L7.125 17.375V14.375L6.75 14.75Z" fill="black"/>
<path d="M7.5 17V14L7.125 14.375V17.375L7.5 17Z" fill="black"/>
<path d="M7.5 20V17L7.125 17.375V20.375L7.5 20Z" fill="black"/>
<path d="M7.5 23V20L7.125 20.375V23.375L7.5 23Z" fill="black"/>
<path d="M7.5 26V23L7.125 23.375V26.375L7.5 26Z" fill="black"/>
<path d="M7.5 8V11L7.875 10.625V7.625L7.5 8Z" fill="black"/>
<path d="M9 12.5V15.5L9.375 15.125V12.125L9 12.5Z" fill="black"/>
<path d="M9 15.5V18.5L9.375 18.125V15.125L9 15.5Z" fill="black"/>
<path d="M9 18.5V21.5L9.375 21.125V18.125L9 18.5Z" fill="black"/>
<path d="M9 21.5V24.5L9.375 24.125V21.125L9 21.5Z" fill="black"/>
<path d="M9 24.5V27.5L9.375 27.125V24.125L9 24.5Z" fill="black"/>
<path d="M9 27.5H9.375V27.125L9 27.5Z" fill="black"/>
<path d="M12 3.5V6.5L12.375 6.125V3.5H12Z" fill="black"/>
<path d="M12 6.5V9.5L12.375 9.125V6.125L12 6.5Z" fill="black"/>
<path d="M12 9.5V12.5L12.375 12.125V9.125L12 9.5Z" fill="black"/>
<path d="M12 12.5V15.5L12.375 15.125V12.125L12 12.5Z" fill="black"/>
<path d="M12 15.5V18.5L12.375 18.125V15.125L12 15.5Z" fill="black"/>
<path d="M12 18.5V21.5L12.375 21.125V18.125L12 18.5Z" fill="black"/>
<path d="M13.5 23V26L13.875 25.625V22.625L13.5 23Z" fill="black"/>
<path d="M14.25 10.25V7.25L13.875 7.625V10.625L14.25 10.25Z" fill="black"/>
<path d="M14.25 13.25V10.25L13.875 10.625V13.625L14.25 13.25Z" fill="black"/>
<path d="M14.25 16.25V13.25L13.875 13.625V16.625L14.25 16.25Z" fill="black"/>
<path d="M14.25 19.25V16.25L13.875 16.625V19.625L14.25 19.25Z" fill="black"/>
<path d="M14.25 16.25V19.25L14.625 18.875V15.875L14.25 16.25Z" fill="black"/>
<path d="M14.25 13.25V16.25L14.625 15.875V12.875L14.25 13.25Z" fill="black"/>
<path d="M14.25 10.25V13.25L14.625 12.875V9.875L14.25 10.25Z" fill="black"/>
<path d="M14.25 7.25V10.25L14.625 9.875V6.875L14.25 7.25Z" fill="black"/>
<path d="M16.125 5.375L15.75 5.75V8.75L16.125 8.375V5.375Z" fill="black"/>
<path d="M16.5 8V5L16.125 5.375V8.375L16.5 8Z" fill="black"/>
<path d="M15.75 11.75L16.125 11.375V8.375L15.75 8.75V11.75Z" fill="black"/>
<path d="M16.5 11V8L16.125 8.375V11.375L16.5 11Z" fill="black"/>
<path d="M15.75 14.75L16.125 14.375V11.375L15.75 11.75V14.75Z" fill="black"/>
<path d="M16.5 14V11L16.125 11.375V14.375L16.5 14Z" fill="black"/>
<path d="M15.75 17.75L16.125 17.375V14.375L15.75 14.75V17.75Z" fill="black"/>
<path d="M16.5 17V14L16.125 14.375V17.375L16.5 17Z" fill="black"/>
<path d="M15.75 20.75L16.125 20.375V17.375L15.75 17.75V20.75Z" fill="black"/>
<path d="M15.75 20.75V23.75L16.125 23.375V20.375L15.75 20.75Z" fill="black"/>
<path d="M16.5 14V17L16.875 16.625V13.625L16.5 14Z" fill="black"/>
<path d="M16.5 11V14L16.875 13.625V10.625L16.5 11Z" fill="black"/>
<path d="M16.5 8V11L16.875 10.625V7.625L16.5 8Z" fill="black"/>
<path d="M16.5 5V8L16.875 7.625V4.625L16.5 5Z" fill="black"/>
<path d="M18 12.5V15.5L18.375 15.125V12.125L18 12.5Z" fill="black"/>
<path d="M18 9.5V12.5L18.375 12.125V9.125L18 9.5Z" fill="black"/>
<path d="M18 6.5V9.5L18.375 9.125V6.125L18 6.5Z" fill="black"/>
<path d="M18 3.5V6.5L18.375 6.125V3.5H18Z" fill="black"/>
<path d="M18 15.5V18.5L18.375 18.125V15.125L18 15.5Z" fill="black"/>
<path d="M18 18.5V21.5L18.375 21.125V18.125L18 18.5Z" fill="black"/>
<path d="M22.5 11V14L22.875 13.625V10.625L22.5 11Z" fill="black"/>
<path d="M22.5 14V17L22.875 16.625V13.625L22.5 14Z" fill="black"/>
<path d="M23.25 10.25L23.625 9.875V6.875L23.25 7.25V10.25Z" fill="black"/>
<path d="M23.25 4.25V7.25L23.625 6.875V3.875L23.25 4.25Z" fill="black"/>
<path d="M23.25 3.5V4.25L23.625 3.875V3.5H23.25Z" fill="black"/>
<path d="M0.75 23.75V20.75L0.375 21.125V24.125L0.75 23.75Z" fill="black"/>
<path d="M0 21.5V24.5L0.375 24.125V21.125L0 21.5Z" fill="black"/>
<path fill-rule="evenodd" clip-rule="evenodd" d="M11.25 25.25V22.25L11.625 21.875V24.875L11.25 25.25Z" fill="black"/>
<path d="M14.25 4.25V7.25L14.625 6.875V3.875L14.25 4.25Z" fill="black"/>
<path d="M14.25 3.5V4.25L14.625 3.875V3.5H14.25Z" fill="black"/>
<path fill-rule="evenodd" clip-rule="evenodd" d="M9.75 23.75L10.125 23.375V20.375V17.375V14.375V11.375V8.375V5.375L9.75 5.75V8.75V11.75L9.375 12.125V15.125V18.125V21.125V24.125L9.75 23.75ZM0.75 17.75V20.75V23.75L0.375 24.125L0 24.5V27.5H0.375H0.75H1.125V26.375V23.375V20.375V17.375L0.75 17.75Z" fill="black"/>
<path d="M16.5 3.5V5L16.875 4.625V3.5H16.5Z" fill="black"/>
<path d="M29.92 24V7.2H36.352C37.36 7.2 38.256 7.4 39.04 7.8C39.84 8.184 40.472 8.736 40.936 9.456C41.4 10.176 41.632 11.048 41.632 12.072V12.384C41.632 13.392 41.392 14.264 40.912 15C40.448 15.72 39.816 16.272 39.016 16.656C38.216 17.04 37.328 17.232 36.352 17.232H31.936V24H29.92ZM31.936 15.408H36.136C37.208 15.408 38.056 15.144 38.68 14.616C39.304 14.072 39.616 13.312 39.616 12.336V12.096C39.616 11.12 39.304 10.368 38.68 9.84C38.072 9.296 37.224 9.024 36.136 9.024H31.936V15.408ZM42.9661 24V12.264H44.8141V13.704H45.1501C45.3581 13.192 45.6781 12.816 46.1101 12.576C46.5421 12.336 47.1101 12.216 47.8141 12.216H49.2061V13.944H47.6941C46.8461 13.944 46.1581 14.184 45.6301 14.664C45.1181 15.128 44.8621 15.856 44.8621 16.848V24H42.9661ZM55.5271 24.336C54.3431 24.336 53.3031 24.088 52.4071 23.592C51.5111 23.08 50.8151 22.368 50.3191 21.456C49.8231 20.544 49.5751 19.488 49.5751 18.288V18C49.5751 16.784 49.8231 15.72 50.3191 14.808C50.8151 13.896 51.5031 13.192 52.3831 12.696C53.2631 12.184 54.2711 11.928 55.4071 11.928C56.5111 11.928 57.4871 12.168 58.3351 12.648C59.1831 13.112 59.8471 13.784 60.3271 14.664C60.8071 15.544 61.0471 16.576 61.0471 17.76V18.624H51.4711C51.5191 19.888 51.9271 20.88 52.6951 21.6C53.4631 22.304 54.4231 22.656 55.5751 22.656C56.5831 22.656 57.3591 22.424 57.9031 21.96C58.4471 21.496 58.8631 20.944 59.1511 20.304L60.7831 21.096C60.5431 21.592 60.2071 22.088 59.7751 22.584C59.3591 23.08 58.8071 23.496 58.1191 23.832C57.4471 24.168 56.5831 24.336 55.5271 24.336ZM51.4951 17.064H59.1271C59.0631 15.976 58.6871 15.128 57.9991 14.52C57.3271 13.912 56.4631 13.608 55.4071 13.608C54.3351 13.608 53.4551 13.912 52.7671 14.52C52.0791 15.128 51.6551 15.976 51.4951 17.064ZM67.8822 24.336C66.8742 24.336 65.9462 24.096 65.0982 23.616C64.2502 23.136 63.5782 22.44 63.0822 21.528C62.5862 20.616 62.3382 19.536 62.3382 18.288V17.976C62.3382 16.728 62.5862 15.656 63.0822 14.76C63.5782 13.848 64.2422 13.152 65.0742 12.672C65.9222 12.176 66.8582 11.928 67.8822 11.928C68.6982 11.928 69.3862 12.04 69.9462 12.264C70.5222 12.472 70.9862 12.744 71.3382 13.08C71.6902 13.4 71.9622 13.744 72.1542 14.112H72.4902V7.2H74.3862V24H72.5382V22.056H72.2022C71.8822 22.648 71.3862 23.176 70.7142 23.64C70.0422 24.104 69.0982 24.336 67.8822 24.336ZM68.3862 22.656C69.6022 22.656 70.5862 22.272 71.3382 21.504C72.1062 20.72 72.4902 19.632 72.4902 18.24V18.024C72.4902 16.632 72.1062 15.552 71.3382 14.784C70.5862 14 69.6022 13.608 68.3862 13.608C67.1862 13.608 66.1942 14 65.4102 14.784C64.6422 15.552 64.2582 16.632 64.2582 18.024V18.24C64.2582 19.632 64.6422 20.72 65.4102 21.504C66.1942 22.272 67.1862 22.656 68.3862 22.656ZM76.9195 24V12.264H78.8155V24H76.9195ZM77.8795 10.44C77.4635 10.44 77.1115 10.304 76.8235 10.032C76.5515 9.76 76.4155 9.416 76.4155 9C76.4155 8.568 76.5515 8.216 76.8235 7.944C77.1115 7.672 77.4635 7.536 77.8795 7.536C78.2955 7.536 78.6395 7.672 78.9115 7.944C79.1835 8.216 79.3195 8.568 79.3195 9C79.3195 9.416 79.1835 9.76 78.9115 10.032C78.6395 10.304 78.2955 10.44 77.8795 10.44ZM86.7623 24.336C85.6263 24.336 84.6023 24.096 83.6903 23.616C82.7943 23.12 82.0823 22.416 81.5543 21.504C81.0423 20.592 80.7863 19.512 80.7863 18.264V18C80.7863 16.736 81.0423 15.656 81.5543 14.76C82.0823 13.848 82.7943 13.152 83.6903 12.672C84.6023 12.176 85.6263 11.928 86.7623 11.928C87.8823 11.928 88.8343 12.136 89.6183 12.552C90.4183 12.968 91.0423 13.52 91.4903 14.208C91.9543 14.896 92.2503 15.632 92.3783 16.416L90.5303 16.8C90.4503 16.224 90.2583 15.696 89.9543 15.216C89.6663 14.736 89.2583 14.352 88.7303 14.064C88.2023 13.776 87.5543 13.632 86.7863 13.632C86.0023 13.632 85.2983 13.808 84.6743 14.16C84.0663 14.512 83.5783 15.016 83.2103 15.672C82.8583 16.328 82.6823 17.112 82.6823 18.024V18.24C82.6823 19.152 82.8583 19.936 83.2103 20.592C83.5783 21.248 84.0663 21.752 84.6743 22.104C85.2983 22.456 86.0023 22.632 86.7863 22.632C87.9543 22.632 88.8423 22.328 89.4503 21.72C90.0743 21.112 90.4583 20.36 90.6023 19.464L92.4743 19.872C92.2983 20.64 91.9783 21.368 91.5143 22.056C91.0503 22.744 90.4183 23.296 89.6183 23.712C88.8343 24.128 87.8823 24.336 86.7623 24.336ZM98.0939 24C97.4219 24 96.9019 23.816 96.5339 23.448C96.1819 23.08 96.0059 22.576 96.0059 21.936V13.92H92.4779V12.264H96.0059V8.088H97.9019V12.264H101.742V13.92H97.9019V21.648C97.9019 22.128 98.1339 22.368 98.5979 22.368H101.214V24H98.0939ZM103.373 24V12.264H105.269V24H103.373ZM104.333 10.44C103.917 10.44 103.565 10.304 103.277 10.032C103.005 9.76 102.869 9.416 102.869 9C102.869 8.568 103.005 8.216 103.277 7.944C103.565 7.672 103.917 7.536 104.333 7.536C104.749 7.536 105.093 7.672 105.365 7.944C105.637 8.216 105.773 8.568 105.773 9C105.773 9.416 105.637 9.76 105.365 10.032C105.093 10.304 104.749 10.44 104.333 10.44ZM110.12 24V13.92H106.52V12.264H110.12V9.264C110.12 8.624 110.296 8.12 110.648 7.752C111.016 7.384 111.536 7.2 112.208 7.2H115.16V8.832H112.736C112.256 8.832 112.016 9.072 112.016 9.552V12.264H115.712V13.92H112.016V24H110.12ZM118.409 28.8V27.12H125.129C125.593 27.12 125.825 26.88 125.825 26.4V22.128H125.489C125.329 22.464 125.081 22.8 124.745 23.136C124.425 23.456 124.001 23.72 123.473 23.928C122.945 24.12 122.281 24.216 121.481 24.216C120.633 24.216 119.849 24.032 119.129 23.664C118.425 23.296 117.865 22.752 117.449 22.032C117.049 21.312 116.849 20.432 116.849 19.392V12.264H118.745V19.248C118.745 20.4 119.033 21.24 119.609 21.768C120.201 22.296 120.993 22.56 121.985 22.56C123.105 22.56 124.025 22.192 124.745 21.456C125.465 20.72 125.825 19.624 125.825 18.168V12.264H127.721V26.736C127.721 27.376 127.537 27.88 127.169 28.248C126.817 28.616 126.297 28.8 125.609 28.8H118.409Z" fill="black"/>
</svg>
